<svg width="214" height="214" viewBox="0 0 214 214" fill="none" xmlns="http://www.w3.org/2000/svg">
<path d="M192.6 107C192.6 84.2975 183.581 62.5248 167.528 46.4717C151.475 30.4185 129.703 21.4 107 21.4C84.2975 21.4 62.5248 30.4185 46.4717 46.4717C30.4185 62.5248 21.4 84.2975 21.4 107C21.4 129.703 30.4185 151.475 46.4717 167.528C62.5248 183.581 84.2975 192.6 107 192.6C129.703 192.6 151.475 183.581 167.528 167.528C183.581 151.475 192.6 129.703 192.6 107ZM214 107C214 135.378 202.727 162.594 182.66 182.66C162.594 202.727 135.378 214 107 214C92.9486 214 79.0347 211.232 66.0529 205.855C53.071 200.478 41.2754 192.596 31.3396 182.66C11.2732 162.594 0 135.378 0 107C0 78.6218 11.2732 51.406 31.3396 31.3396C51.406 11.2732 78.6218 0 107 0C121.051 0 134.965 2.76764 147.947 8.14489C160.929 13.5221 172.725 21.4037 182.66 31.3396C192.596 41.2754 200.478 53.071 205.855 66.0529C211.232 79.0347 214 92.9486 214 107ZM85.6 80.25C85.6 88.81 78.11 96.3 69.55 96.3C60.99 96.3 53.5 88.81 53.5 80.25C53.5 71.69 60.99 64.2 69.55 64.2C78.11 64.2 85.6 71.69 85.6 80.25ZM160.5 80.25C160.5 88.81 153.01 96.3 144.45 96.3C135.89 96.3 128.4 88.81 128.4 80.25C128.4 71.69 135.89 64.2 144.45 64.2C153.01 64.2 160.5 71.69 160.5 80.25ZM107 162.961C91.9498 162.961 78.3511 157.915 68.5931 149.934C64.6293 146.692 64.9395 140.822 68.5604 137.201V137.201C73.0626 132.698 80.9411 133.558 86.5135 136.638C92.0676 139.708 99.2068 141.561 107 141.561C114.793 141.561 121.932 139.708 127.487 136.638C133.059 133.558 140.937 132.698 145.44 137.201V137.201C149.061 140.822 149.371 146.692 145.407 149.934C135.649 157.915 122.05 162.961 107 162.961Z" fill="#182848"/>
</svg>
