<svg width="22" height="22" viewBox="0 0 22 22" fill="none" xmlns="http://www.w3.org/2000/svg">
<path d="M19.6667 10.9167C19.6667 8.61816 18.7536 6.41376 17.1283 4.78845C15.503 3.16313 13.2985 2.25004 11 2.25004C8.70146 2.25004 6.49706 3.16313 4.87175 4.78845C3.24643 6.41376 2.33334 8.61816 2.33334 10.9167C2.33334 13.2153 3.24643 15.4197 4.87175 17.045C6.49706 18.6703 8.70146 19.5834 11 19.5834C13.2985 19.5834 15.503 18.6703 17.1283 17.045C18.7536 15.4197 19.6667 13.2153 19.6667 10.9167ZM21.8333 10.9167C21.8333 13.7899 20.692 16.5454 18.6603 18.577C16.6287 20.6087 13.8732 21.75 11 21.75C9.57735 21.75 8.16863 21.4698 6.85427 20.9254C5.53991 20.381 4.34565 19.583 3.33968 18.577C1.30804 16.5454 0.166672 13.7899 0.166672 10.9167C0.166672 8.04353 1.30804 5.28803 3.33968 3.25638C5.37133 1.22474 8.12683 0.083374 11 0.083374C12.4227 0.083374 13.8314 0.363587 15.1457 0.908013C16.4601 1.45244 17.6544 2.25042 18.6603 3.25638C19.6663 4.26235 20.4643 5.45661 21.0087 6.77097C21.5531 8.08533 21.8333 9.49405 21.8333 10.9167ZM8.83334 8.20837C8.83334 9.07504 8.07501 9.83337 7.20834 9.83337C6.34167 9.83337 5.58334 9.07504 5.58334 8.20837C5.58334 7.34171 6.34167 6.58337 7.20834 6.58337C8.07501 6.58337 8.83334 7.34171 8.83334 8.20837ZM16.4167 8.20837C16.4167 9.07504 15.6583 9.83337 14.7917 9.83337C13.925 9.83337 13.1667 9.07504 13.1667 8.20837C13.1667 7.34171 13.925 6.58337 14.7917 6.58337C15.6583 6.58337 16.4167 7.34171 16.4167 8.20837ZM11 16.5825C9.47623 16.5825 8.09942 16.0717 7.11146 15.2636C6.71013 14.9354 6.74154 14.341 7.10815 13.9744C7.56398 13.5186 8.36164 13.6056 8.92582 13.9174C9.48815 14.2283 10.211 14.4159 11 14.4159C11.789 14.4159 12.5119 14.2283 13.0742 13.9174C13.6384 13.6056 14.436 13.5186 14.8919 13.9744C15.2585 14.341 15.2899 14.9354 14.8886 15.2636C13.9006 16.0717 12.5238 16.5825 11 16.5825Z" fill="white"/>
</svg>
